<svg width="175" height="192" viewBox="0 0 175 192" fill="none" xmlns="http://www.w3.org/2000/svg">
<path d="M19.5996 152.3L78.9293 0L175 37.374L163.716 66.339L102.007 42.3323L88.2664 77.6042L141.094 98.1553L129.81 127.12L76.9828 106.569L53.9607 165.667L19.5996 152.3Z" fill="#404040"/>
<path d="M0 170.801V7.46686H36.9255V139.737H101.734V170.801H0Z" fill="#0EA5E9"/>
<path d="M1.83545 191.667V176.725H5.20421V188.825H11.1167V191.667H1.83545Z" fill="#404040"/>
<path d="M18.7358 191.942C17.758 191.942 16.8948 191.812 16.1462 191.552C15.4129 191.277 14.7941 190.857 14.29 190.292C13.7858 189.711 13.4039 188.978 13.1441 188.092C12.8844 187.206 12.7546 186.152 12.7546 184.93V176.725H16.1462V185.273C16.1462 186.205 16.2455 186.946 16.4442 187.496C16.6428 188.031 16.933 188.42 17.315 188.665C17.6969 188.909 18.1705 189.032 18.7358 189.032C19.2858 189.032 19.7594 188.909 20.1567 188.665C20.5539 188.42 20.8518 188.031 21.0504 187.496C21.2643 186.946 21.3712 186.205 21.3712 185.273V176.725H24.6254V184.93C24.6254 186.152 24.4956 187.206 24.2358 188.092C23.9914 188.978 23.6171 189.711 23.1129 190.292C22.624 190.857 22.0129 191.277 21.2796 191.552C20.5462 191.812 19.6983 191.942 18.7358 191.942Z" fill="#404040"/>
<path d="M28.0867 191.667V176.725H31.4555V182.844H31.5472L35.993 176.725H39.7055L35.1909 182.684L40.5305 191.667H36.8409L33.1972 185.365L31.4555 187.657V191.667H28.0867Z" fill="#404040"/>
<path d="M40.0376 191.667L44.7127 176.725H48.746L53.4439 191.667H49.8689L47.921 184.105C47.7071 183.356 47.5009 182.561 47.3022 181.721C47.1036 180.881 46.905 180.071 46.7064 179.292H46.6147C46.4467 180.071 46.2634 180.881 46.0647 181.721C45.8661 182.561 45.6599 183.356 45.446 184.105L43.4752 191.667H40.0376ZM43.1085 188.115V185.48H50.3043V188.115H43.1085Z" fill="#404040"/>
<path d="M59.637 191.942C58.6439 191.942 57.6662 191.766 56.7037 191.415C55.7412 191.048 54.878 190.498 54.1141 189.765L55.9016 187.565C56.4363 188.023 57.0398 188.382 57.712 188.642C58.3995 188.902 59.0717 189.032 59.7287 189.032C60.4314 189.032 60.9509 188.902 61.287 188.642C61.6384 188.382 61.8141 188.031 61.8141 187.588C61.8141 187.267 61.7224 187.015 61.5391 186.832C61.371 186.633 61.1266 186.457 60.8058 186.305C60.4849 186.152 60.103 185.984 59.6599 185.8L57.712 184.998C57.2078 184.769 56.7189 184.479 56.2453 184.127C55.787 183.761 55.4127 183.318 55.1224 182.798C54.8474 182.264 54.7099 181.629 54.7099 180.896C54.7099 180.071 54.9314 179.33 55.3745 178.673C55.8328 178.001 56.4592 177.466 57.2537 177.069C58.0634 176.657 58.9877 176.45 60.0266 176.45C60.928 176.45 61.7988 176.611 62.6391 176.932C63.4794 177.252 64.2127 177.718 64.8391 178.329L63.0516 180.507C62.5627 180.14 62.0585 179.857 61.5391 179.659C61.0349 179.46 60.5308 179.361 60.0266 179.361C59.446 179.361 58.9801 179.483 58.6287 179.727C58.2926 179.957 58.1245 180.285 58.1245 180.713C58.1245 181.003 58.2238 181.255 58.4224 181.469C58.621 181.668 58.896 181.843 59.2474 181.996C59.5988 182.134 59.9808 182.294 60.3933 182.477L62.3183 183.257C62.9294 183.501 63.4488 183.807 63.8766 184.173C64.3197 184.54 64.6634 184.983 64.9079 185.502C65.1523 186.007 65.2745 186.61 65.2745 187.313C65.2745 188.138 65.053 188.902 64.6099 189.605C64.1669 190.307 63.5252 190.873 62.6849 191.3C61.8446 191.728 60.8287 191.942 59.637 191.942Z" fill="#404040"/>
<path d="M72.3984 191.667V176.725H81.8172V179.567H75.7672V183.027H80.9463V185.869H75.7672V191.667H72.3984Z" fill="#404040"/>
<path d="M84.4163 191.667V176.725H87.785V191.667H84.4163Z" fill="#404040"/>
<path d="M94.2196 191.667V179.567H90.1175V176.725H101.713V179.567H97.6113V191.667H94.2196Z" fill="#404040"/>
<path d="M104.043 191.667V176.725H107.572L111.399 184.082C111.674 184.586 111.927 185.128 112.156 185.709C112.4 186.274 112.637 186.855 112.866 187.45H112.958C112.881 186.641 112.79 185.755 112.683 184.792C112.576 183.83 112.522 182.905 112.522 182.019V176.725H115.754V191.667H112.224L108.397 184.311C108.138 183.807 107.878 183.264 107.618 182.684C107.374 182.103 107.137 181.523 106.908 180.942H106.816C106.908 181.767 107.007 182.661 107.114 183.623C107.221 184.57 107.274 185.487 107.274 186.373V191.667H104.043Z" fill="#404040"/>
<path d="M119.284 191.667V176.725H128.634V179.567H122.652V182.569H127.74V185.388H122.652V188.825H128.863V191.667H119.284Z" fill="#404040"/>
<path d="M136.399 191.942C135.406 191.942 134.428 191.766 133.466 191.415C132.503 191.048 131.64 190.498 130.876 189.765L132.664 187.565C133.198 188.023 133.802 188.382 134.474 188.642C135.162 188.902 135.834 189.032 136.491 189.032C137.194 189.032 137.713 188.902 138.049 188.642C138.401 188.382 138.576 188.031 138.576 187.588C138.576 187.267 138.485 187.015 138.301 186.832C138.133 186.633 137.889 186.457 137.568 186.305C137.247 186.152 136.865 185.984 136.422 185.8L134.474 184.998C133.97 184.769 133.481 184.479 133.007 184.127C132.549 183.761 132.175 183.318 131.885 182.798C131.61 182.264 131.472 181.629 131.472 180.896C131.472 180.071 131.694 179.33 132.137 178.673C132.595 178.001 133.221 177.466 134.016 177.069C134.825 176.657 135.75 176.45 136.789 176.45C137.69 176.45 138.561 176.611 139.401 176.932C140.241 177.252 140.975 177.718 141.601 178.329L139.814 180.507C139.325 180.14 138.821 179.857 138.301 179.659C137.797 179.46 137.293 179.361 136.789 179.361C136.208 179.361 135.742 179.483 135.391 179.727C135.055 179.957 134.887 180.285 134.887 180.713C134.887 181.003 134.986 181.255 135.185 181.469C135.383 181.668 135.658 181.843 136.01 181.996C136.361 182.134 136.743 182.294 137.155 182.477L139.08 183.257C139.691 183.501 140.211 183.807 140.639 184.173C141.082 184.54 141.426 184.983 141.67 185.502C141.914 186.007 142.037 186.61 142.037 187.313C142.037 188.138 141.815 188.902 141.372 189.605C140.929 190.307 140.287 190.873 139.447 191.3C138.607 191.728 137.591 191.942 136.399 191.942Z" fill="#404040"/>
<path d="M148.73 191.942C147.737 191.942 146.759 191.766 145.797 191.415C144.834 191.048 143.971 190.498 143.207 189.765L144.995 187.565C145.53 188.023 146.133 188.382 146.805 188.642C147.493 188.902 148.165 189.032 148.822 189.032C149.525 189.032 150.044 188.902 150.38 188.642C150.732 188.382 150.907 188.031 150.907 187.588C150.907 187.267 150.816 187.015 150.632 186.832C150.464 186.633 150.22 186.457 149.899 186.305C149.578 186.152 149.196 185.984 148.753 185.8L146.805 184.998C146.301 184.769 145.812 184.479 145.339 184.127C144.88 183.761 144.506 183.318 144.216 182.798C143.941 182.264 143.803 181.629 143.803 180.896C143.803 180.071 144.025 179.33 144.468 178.673C144.926 178.001 145.552 177.466 146.347 177.069C147.157 176.657 148.081 176.45 149.12 176.45C150.021 176.45 150.892 176.611 151.732 176.932C152.573 177.252 153.306 177.718 153.932 178.329L152.145 180.507C151.656 180.14 151.152 179.857 150.632 179.659C150.128 179.46 149.624 179.361 149.12 179.361C148.539 179.361 148.073 179.483 147.722 179.727C147.386 179.957 147.218 180.285 147.218 180.713C147.218 181.003 147.317 181.255 147.516 181.469C147.714 181.668 147.989 181.843 148.341 181.996C148.692 182.134 149.074 182.294 149.487 182.477L151.412 183.257C152.023 183.501 152.542 183.807 152.97 184.173C153.413 184.54 153.757 184.983 154.001 185.502C154.246 186.007 154.368 186.61 154.368 187.313C154.368 188.138 154.146 188.902 153.703 189.605C153.26 190.307 152.618 190.873 151.778 191.3C150.938 191.728 149.922 191.942 148.73 191.942Z" fill="#404040"/>
</svg>
