<svg width="88" height="96" viewBox="0 0 88 96" fill="none" xmlns="http://www.w3.org/2000/svg">
<path d="M9.80273 76.1729L39.4766 0L87.5265 18.6926L81.883 33.1795L51.0188 21.1726L44.1465 38.8138L70.5681 49.0925L64.9246 63.5794L38.503 53.3007L26.9885 82.8586L9.80273 76.1729Z" fill="#404040"/>
<path d="M0 85.4262V3.73456H18.4684V69.8897H50.8822V85.4262H0Z" fill="#0EA5E9"/>
<path d="M0.917969 95.8625V88.3894H2.60286V94.4412H5.56001V95.8625H0.917969Z" fill="#404040"/>
<path d="M9.37071 96C8.88167 96 8.44995 95.9351 8.07553 95.8052C7.70875 95.6676 7.39928 95.4575 7.14712 95.1748C6.89496 94.8844 6.70393 94.5176 6.57403 94.0744C6.44412 93.6313 6.37917 93.104 6.37917 92.4927V88.3894H8.07553V92.6646C8.07553 93.1308 8.12519 93.5013 8.22453 93.7764C8.32387 94.0439 8.46905 94.2387 8.66008 94.361C8.85111 94.4832 9.08799 94.5444 9.37071 94.5444C9.6458 94.5444 9.88267 94.4832 10.0813 94.361C10.28 94.2387 10.429 94.0439 10.5284 93.7764C10.6353 93.5013 10.6888 93.1308 10.6888 92.6646V88.3894H12.3164V92.4927C12.3164 93.104 12.2515 93.6313 12.1216 94.0744C11.9993 94.5176 11.8121 94.8844 11.5599 95.1748C11.3154 95.4575 11.0098 95.6676 10.643 95.8052C10.2762 95.9351 9.85211 96 9.37071 96Z" fill="#404040"/>
<path d="M14.0476 95.8625V88.3894H15.7325V91.4497H15.7783L18.0019 88.3894H19.8587L17.6008 91.3694L20.2714 95.8625H18.426L16.6036 92.7105L15.7325 93.8567V95.8625H14.0476Z" fill="#404040"/>
<path d="M20.0248 95.8625L22.3631 88.3894H24.3803L26.73 95.8625H24.942L23.9677 92.0801C23.8607 91.7057 23.7576 91.3083 23.6582 90.8881C23.5589 90.4678 23.4596 90.0628 23.3602 89.6731H23.3144C23.2303 90.0628 23.1386 90.4678 23.0393 90.8881C22.94 91.3083 22.8368 91.7057 22.7298 92.0801L21.7441 95.8625H20.0248ZM21.5607 94.0859V92.7678H25.1597V94.0859H21.5607Z" fill="#404040"/>
<path d="M29.8275 96C29.3308 96 28.8418 95.9122 28.3604 95.7364C27.879 95.553 27.4472 95.2779 27.0652 94.9112L27.9592 93.8108C28.2267 94.0401 28.5285 94.2196 28.8647 94.3495C29.2085 94.4794 29.5448 94.5444 29.8733 94.5444C30.2248 94.5444 30.4846 94.4794 30.6527 94.3495C30.8285 94.2196 30.9164 94.0439 30.9164 93.8223C30.9164 93.6618 30.8705 93.5357 30.7788 93.444C30.6948 93.3447 30.5725 93.2568 30.412 93.1804C30.2516 93.104 30.0605 93.02 29.8389 92.9283L28.8647 92.5271C28.6125 92.4125 28.368 92.2673 28.1311 92.0915C27.9019 91.9082 27.7147 91.6866 27.5695 91.4268C27.432 91.1593 27.3632 90.8422 27.3632 90.4754C27.3632 90.0628 27.474 89.6922 27.6956 89.3636C27.9248 89.0274 28.2381 88.76 28.6355 88.5613C29.0404 88.355 29.5027 88.2518 30.0223 88.2518C30.4732 88.2518 30.9087 88.3321 31.329 88.4925C31.7493 88.653 32.116 88.8861 32.4293 89.1917L31.5353 90.2806C31.2908 90.0972 31.0386 89.9558 30.7788 89.8565C30.5267 89.7572 30.2745 89.7075 30.0223 89.7075C29.732 89.7075 29.4989 89.7686 29.3232 89.8909C29.1551 90.0055 29.071 90.1698 29.071 90.3837C29.071 90.5289 29.1207 90.655 29.22 90.762C29.3193 90.8613 29.4569 90.9492 29.6326 91.0256C29.8084 91.0944 29.9994 91.1746 30.2057 91.2663L31.1685 91.656C31.4742 91.7783 31.734 91.9311 31.9479 92.1145C32.1695 92.2979 32.3414 92.5195 32.4637 92.7793C32.586 93.0314 32.6471 93.3332 32.6471 93.6847C32.6471 94.0974 32.5363 94.4794 32.3147 94.8309C32.0931 95.1824 31.7722 95.4651 31.3519 95.6791C30.9316 95.8931 30.4235 96 29.8275 96Z" fill="#404040"/>
<path d="M36.2101 95.8625V88.3894H40.9209V89.8106H37.895V91.5414H40.4854V92.9626H37.895V95.8625H36.2101Z" fill="#404040"/>
<path d="M42.2209 95.8625V88.3894H43.9058V95.8625H42.2209Z" fill="#404040"/>
<path d="M47.124 95.8625V89.8106H45.0724V88.3894H50.872V89.8106H48.8204V95.8625H47.124Z" fill="#404040"/>
<path d="M52.0373 95.8625V88.3894H53.8024L55.7165 92.0686C55.8541 92.3208 55.9802 92.592 56.0948 92.8824C56.217 93.1651 56.3355 93.4555 56.4501 93.7535H56.4959C56.4577 93.3485 56.4119 92.9053 56.3584 92.4239C56.3049 91.9425 56.2782 91.4802 56.2782 91.0371V88.3894H57.8943V95.8625H56.1292L54.215 92.1832C54.0851 91.9311 53.9552 91.6598 53.8253 91.3694C53.7031 91.0791 53.5846 90.7887 53.47 90.4984H53.4242C53.47 90.911 53.5197 91.358 53.5732 91.8394C53.6267 92.3131 53.6534 92.7716 53.6534 93.2148V95.8625H52.0373Z" fill="#404040"/>
<path d="M59.6599 95.8625V88.3894H64.3363V89.8106H61.3448V91.3121H63.8893V92.7219H61.3448V94.4412H64.4509V95.8625H59.6599Z" fill="#404040"/>
<path d="M68.2202 96C67.7235 96 67.2344 95.9122 66.753 95.7364C66.2716 95.553 65.8399 95.2779 65.4578 94.9112L66.3519 93.8108C66.6193 94.0401 66.9211 94.2196 67.2574 94.3495C67.6012 94.4794 67.9374 94.5444 68.266 94.5444C68.6175 94.5444 68.8773 94.4794 69.0454 94.3495C69.2212 94.2196 69.309 94.0439 69.309 93.8223C69.309 93.6618 69.2632 93.5357 69.1715 93.444C69.0874 93.3447 68.9652 93.2568 68.8047 93.1804C68.6442 93.104 68.4532 93.02 68.2316 92.9283L67.2574 92.5271C67.0052 92.4125 66.7607 92.2673 66.5238 92.0915C66.2946 91.9082 66.1074 91.6866 65.9622 91.4268C65.8246 91.1593 65.7559 90.8422 65.7559 90.4754C65.7559 90.0628 65.8667 89.6922 66.0883 89.3636C66.3175 89.0274 66.6308 88.76 67.0281 88.5613C67.4331 88.355 67.8954 88.2518 68.415 88.2518C68.8658 88.2518 69.3014 88.3321 69.7216 88.4925C70.1419 88.653 70.5087 88.8861 70.822 89.1917L69.928 90.2806C69.6834 90.0972 69.4313 89.9558 69.1715 89.8565C68.9193 89.7572 68.6672 89.7075 68.415 89.7075C68.1246 89.7075 67.8916 89.7686 67.7158 89.8909C67.5477 90.0055 67.4637 90.1698 67.4637 90.3837C67.4637 90.5289 67.5133 90.655 67.6127 90.762C67.712 90.8613 67.8495 90.9492 68.0253 91.0256C68.201 91.0944 68.3921 91.1746 68.5984 91.2663L69.5612 91.656C69.8668 91.7783 70.1266 91.9311 70.3406 92.1145C70.5622 92.2979 70.7341 92.5195 70.8564 92.7793C70.9786 93.0314 71.0398 93.3332 71.0398 93.6847C71.0398 94.0974 70.929 94.4794 70.7074 94.8309C70.4858 95.1824 70.1648 95.4651 69.7446 95.6791C69.3243 95.8931 68.8162 96 68.2202 96Z" fill="#404040"/>
<path d="M74.3876 96C73.8909 96 73.4019 95.9122 72.9205 95.7364C72.4391 95.553 72.0074 95.2779 71.6253 94.9112L72.5193 93.8108C72.7868 94.0401 73.0886 94.2196 73.4248 94.3495C73.7687 94.4794 74.1049 94.5444 74.4334 94.5444C74.7849 94.5444 75.0447 94.4794 75.2129 94.3495C75.3886 94.2196 75.4765 94.0439 75.4765 93.8223C75.4765 93.6618 75.4306 93.5357 75.3389 93.444C75.2549 93.3447 75.1326 93.2568 74.9722 93.1804C74.8117 93.104 74.6207 93.02 74.3991 92.9283L73.4248 92.5271C73.1726 92.4125 72.9281 92.2673 72.6912 92.0915C72.462 91.9082 72.2748 91.6866 72.1296 91.4268C71.9921 91.1593 71.9233 90.8422 71.9233 90.4754C71.9233 90.0628 72.0341 89.6922 72.2557 89.3636C72.4849 89.0274 72.7982 88.76 73.1956 88.5613C73.6006 88.355 74.0628 88.2518 74.5825 88.2518C75.0333 88.2518 75.4688 88.3321 75.8891 88.4925C76.3094 88.653 76.6761 88.8861 76.9894 89.1917L76.0954 90.2806C75.8509 90.0972 75.5987 89.9558 75.3389 89.8565C75.0868 89.7572 74.8346 89.7075 74.5825 89.7075C74.2921 89.7075 74.059 89.7686 73.8833 89.8909C73.7152 90.0055 73.6311 90.1698 73.6311 90.3837C73.6311 90.5289 73.6808 90.655 73.7801 90.762C73.8795 90.8613 74.017 90.9492 74.1927 91.0256C74.3685 91.0944 74.5595 91.1746 74.7658 91.2663L75.7286 91.656C76.0343 91.7783 76.2941 91.9311 76.508 92.1145C76.7296 92.2979 76.9016 92.5195 77.0238 92.7793C77.1461 93.0314 77.2072 93.3332 77.2072 93.6847C77.2072 94.0974 77.0964 94.4794 76.8748 94.8309C76.6532 95.1824 76.3323 95.4651 75.912 95.6791C75.4918 95.8931 74.9836 96 74.3876 96Z" fill="#404040"/>
</svg>
